<?xml version="1.0" ?><!DOCTYPE svg  PUBLIC '-//W3C//DTD SVG 1.1//EN'  'http://www.w3.org/Graphics/SVG/1.1/DTD/svg11.dtd'><svg enable-background="new 0 0 128 128" height="128px" id="Layer_1" version="1.1" viewBox="0 0 128 128" width="128px" xml:space="preserve" xmlns="http://www.w3.org/2000/svg" xmlns:xlink="http://www.w3.org/1999/xlink"><path d="M117.917,49.681l-7.366-3.157l6.3-26.46L102.401,51.25l4.569,1.915l-2.769,7.922c-0.856-1.61-2.049-2.864-3.436-3.571  l-0.566-23.226c-0.025-1.017-0.498-1.888-1.038-2.686c-4.588-6.774-18.163-12.529-35.173-12.529  c-17.069,0-30.722,5.757-35.211,12.604c-0.511,0.779-0.951,1.629-0.975,2.612l-0.566,23.226c-1.387,0.708-2.58,1.961-3.436,3.571  l-2.769-7.922l4.569-1.915L11.148,20.065l6.3,26.46l-7.366,3.157l12.311,16.863c-0.006,0.17-0.019,0.337-0.019,0.509  c0,4.133,1.808,7.683,4.401,9.277L26.37,93.001c0,0.01,0.002,0.02,0.002,0.03l-0.002,0.077c-0.057,2.355,1.623,5.088,3.735,6.133  l15.537,7.708c2.112,1.045,5.768,1.976,8.124,1.976h20.468c2.356,0,6.012-0.929,8.124-1.973l15.537-7.732  c2.112-1.045,3.793-3.841,3.735-6.196l-0.407-16.693c2.593-1.594,4.402-5.144,4.402-9.277c0-0.172-0.013-0.339-0.019-0.509  L117.917,49.681z M88.752,56.661l0.25,10.252l-12.668,2.753l-6.102,1.326l-1.869-3.7L88.752,56.661z M39.248,56.661l20.39,10.63  l-1.869,3.7l-18.77-4.079L39.248,56.661z M95.153,93.882l-15.469,7.698c-1.341,0.663-4.098,1.345-5.45,1.345H53.766  c-1.351,0-4.107-0.683-5.462-1.354l-15.531-7.706c-0.101-0.084-0.345-0.473-0.402-0.704l0.422-17.31l6.932,5.814L64,75l24.277,6.667  l6.933-5.815l0.42,17.234C95.576,93.319,95.334,93.724,95.153,93.882z"/></svg>