<?xml version="1.0" ?><!DOCTYPE svg  PUBLIC '-//W3C//DTD SVG 1.1//EN'  'http://www.w3.org/Graphics/SVG/1.1/DTD/svg11.dtd'><svg enable-background="new 0 0 128 128" height="128px" id="Layer_1" version="1.1" viewBox="0 0 128 128" width="128px" xml:space="preserve" xmlns="http://www.w3.org/2000/svg" xmlns:xlink="http://www.w3.org/1999/xlink"><path d="M103.483,65.158c0-4.476,0-4.935,0-6.427c0-1.339-0.945-2.485-2.442-2.708c0.237-2.456,0.59-4.432,0.59-5.022  c0-0.939,0.964-13.308-0.444-18c-1.408-4.693-1.063-6.438-3.22-7.403c-1.435-0.642-4.717,0.028-4.717,0.028s1.589-2.374,1.433-3.469  s-5.966-4.864-4.87-3.081c1.006,1.636,0.427,4.068,0.325,4.457c0.03-0.292-0.344-1.719-8.594-5.346  c-4.905-2.157-12.673-2.427-19.865-2.001c-6.568,0.389-12.655,1.358-15.642,2.001c-6.257,1.348-16.111,9.288-17.049,11.009  c-0.938,1.721-3.18,6.743-3.18,6.743s-0.417,0.765-1.356,0.765c-0.938,0-2.346-1.721-1.877,0s1.721,4.067,1.721,4.067  s-1.188-0.288-2.596-0.914c-1.408-0.626-3.598-2.033-3.598-2.033s0,0,0.156,3.285c0.156,3.285,5.318,12.826,7.508,13.452  c0.231,0.066,0.534,0.127,0.89,0.181l0.023,1.338c-1.332,0.318-2.162,1.398-2.162,2.651c0,1.492,0,1.951,0,6.427  c0,5.165-0.114,9.412,1.371,10.445c0.282,0.196,0.581,0.38,0.892,0.555L26.37,93.001c0,0.01,0.002,0.02,0.002,0.03l-0.002,0.077  c-0.057,2.355,1.623,5.088,3.735,6.133l15.537,7.708c2.112,1.045,5.768,1.976,8.124,1.976h20.468c2.356,0,6.012-0.929,8.124-1.973  l15.537-7.732c2.112-1.045,3.793-3.841,3.735-6.196l-0.392-16.086l0,0c0,0-0.007-0.288-0.019-0.78  c0.311-0.176,0.611-0.359,0.893-0.555C103.597,74.569,103.483,70.322,103.483,65.158z M33.276,55.975l0.059-2.412  c2.445-0.109,5.005-0.382,6.853-0.813c4.693-1.095,11.152-5.722,11.152-5.722c0.723,1.222-0.595,1.487-1.402,3.91  c-0.782,2.346,1.625,3.75,1.625,3.75s0.254-2.492,2.813-5.563c2.813-3.375,6.678-1.16,6.678-1.16  c4.322,1.91,8.639,0.84,10.543,0.313c1.904-0.528,7.494-4.589,11.091-5.215s9.717,1.78,11.125,2.563  c0.258,0.143,0.476,0.342,0.674,0.563l0.239,9.787C81.056,55.975,46.946,55.975,33.276,55.975z M94.417,62.866v2.722  c0,1.616-1.303,2.927-2.911,2.927H36.495c-1.608,0-2.911-1.31-2.911-2.927v-2.722c0-1.616,1.303-2.927,2.911-2.927h55.011  C93.113,59.94,94.417,61.25,94.417,62.866z M95.153,93.882l-15.469,7.698c-1.341,0.663-4.098,1.345-5.45,1.345H53.766  c-1.351,0-4.107-0.683-5.462-1.354l-15.531-7.706c-0.101-0.084-0.345-0.473-0.402-0.704l0.383-15.724c4.471,0,21.955,0,23.164,0  c1.286,0,2.559-1.127,2.559-1.127l2.068-4.956h6.912l2.068,4.956c0,0,1.274,1.127,2.559,1.127c1.208,0,18.697,0,23.165,0  l0.381,15.647C95.576,93.319,95.334,93.724,95.153,93.882z"/></svg>