<?xml version="1.0" ?><!DOCTYPE svg  PUBLIC '-//W3C//DTD SVG 1.1//EN'  'http://www.w3.org/Graphics/SVG/1.1/DTD/svg11.dtd'><svg enable-background="new 0 0 128 128" height="128px" id="Layer_1" version="1.1" viewBox="0 0 128 128" width="128px" xml:space="preserve" xmlns="http://www.w3.org/2000/svg" xmlns:xlink="http://www.w3.org/1999/xlink"><g><path d="M76.763,80.861c-2.664-1.299-8.483-6.886-9.779-10.041c-1.408-3.427,1.985-9.735,7.908-14.408   c4.084-3.222,7.019-5.77,9.599-6.085v-7.676c0-1.338,0.723-3.24,1.612-4.241l7.265-8.179c0.151-0.17,1.224-1.387,2.154-2.408   c-5.165-4.078-13.747-7.32-24.174-8.38c0.694-2.036,0.136-5.438,0.136-5.438s-4.038,2.964-5.994,2.889   c-1.313-0.051-1.618-0.05-3.177-0.032h0c-0.763,0.009-1.512,0.033-2.205,0.083c-1.311,0.094-2.53,1.55-3.267,2.478   c-10.52,1.031-19.194,4.267-24.383,8.378c0.934,1.026,2.022,2.259,2.174,2.43l7.265,8.179c0.889,1.001,1.612,2.903,1.612,4.241   v7.676c2.579,0.315,5.515,2.863,9.599,6.085c5.923,4.673,9.316,10.981,7.908,14.408c-1.296,3.155-7.115,8.741-9.779,10.041   l2.153,6.792c0.39,1.23,0.707,3.282,0.707,4.573l-0.046,16.699h19.896l-0.046-16.699c0-1.291,0.317-3.343,0.707-4.573   L76.763,80.861z"/><path d="M49.715,81.205c-2.251-0.031-5.507-1.867-9.547-5.538c-2.078-1.889-1.847-22.726,0.001-24.264   c0.591-0.492,1.183-0.795,1.785-0.959v-7.489c0-1.159-0.65-2.87-1.42-3.736l-9.223-10.431c-1.019,0.933-1.884,1.898-2.535,2.891   c-0.511,0.779-0.951,1.629-0.975,2.612l-1.432,58.71c0,0.01,0.002,0.02,0.002,0.03l-0.002,0.077   c-0.057,2.355,1.623,5.088,3.735,6.133l15.537,7.708c1.763,0.872,4.593,1.657,6.854,1.895l0.046-16.496   c0-1.226-0.301-3.174-0.672-4.343L49.715,81.205z"/><path d="M100.198,34.291c-0.025-1.017-0.498-1.888-1.038-2.686c-0.649-0.958-1.496-1.892-2.489-2.796l-9.205,10.41   c-0.77,0.866-1.42,2.577-1.42,3.736v7.489c0.602,0.164,1.194,0.467,1.785,0.959c1.847,1.538,2.079,22.376,0.001,24.264   c-4.04,3.671-7.296,5.507-9.547,5.538l-2.156,6.8c-0.37,1.169-0.672,3.117-0.672,4.343l0.046,16.496   c2.26-0.238,5.091-1.021,6.854-1.893l15.537-7.732c2.112-1.045,3.793-3.841,3.735-6.196L100.198,34.291z"/></g></svg>