<?xml version="1.0" ?><!DOCTYPE svg  PUBLIC '-//W3C//DTD SVG 1.1//EN'  'http://www.w3.org/Graphics/SVG/1.1/DTD/svg11.dtd'><svg enable-background="new 0 0 128 128" height="128px" id="Layer_1" version="1.1" viewBox="0 0 128 128" width="128px" xml:space="preserve" xmlns="http://www.w3.org/2000/svg" xmlns:xlink="http://www.w3.org/1999/xlink"><g><path d="M42.698,57.732c0.025-0.013,0.044-0.055,0.066-0.083C42.606,57.759,42.564,57.8,42.698,57.732z"/><path d="M102.723,46.885c0-12.375-1.674-18.869-9.382-23c-15.936-8.54-40-7.692-49.125-2.625c-6.857,3.808-7.27,7.365-9.952,5.725   c-2.682-1.64-3.361-3.788-3.361-3.788s-3.345,6.469-1.751,7.813c1.063,1.125-2.225,0.031-3.594,0.031   c-0.938,0,0.751,0.91,0.907,4.344c0.187,4.105,1.636,10.368,1.719,15.563c0.083,5.194-0.121,18.967-0.121,18.967v0l-0.603,24.713   c0,0.01,0.002,0.02,0.002,0.03l-0.002,0.077c-0.057,2.355,1.623,5.088,3.735,6.133l15.537,7.708   c2.112,1.045,5.768,1.976,8.124,1.976h20.468c2.356,0,6.012-0.929,8.124-1.973l15.537-7.732c2.112-1.045,3.793-3.841,3.735-6.196   l-0.6-24.601C102.122,70.044,102.723,58.37,102.723,46.885z M96.245,95.51l-15.469,7.698c-1.341,0.663-4.098,1.345-5.45,1.345   H54.857c-1.351,0-4.107-0.683-5.462-1.354l-15.531-7.706c-0.101-0.084-0.345-0.473-0.402-0.704l0.884-36.286   c0.214-0.428,0.414-0.833,0.576-1.182c1.732-3.735,7.777-8.475,7.777-8.475s0.751,7.934,0.066,8.801   c0.792-0.552,4.805-3.015,7.711-4.154c3.486-1.367,16.139-4.739,16.139-4.739l-3.133,8.434c0,0,10.862-1.781,17.298-5.062   c4.755-2.423,11.583-2.972,14.828-3.093l1.114,45.678C96.668,94.947,96.425,95.351,96.245,95.51z"/><polygon points="40.09,69.54 58.86,73.619 60.729,69.919 40.34,59.288  "/><polygon points="69.453,69.919 71.322,73.619 77.425,72.293 90.093,69.54 89.843,59.288  "/></g></svg>